# xmcd
#
# Track frame offsets:
#	150
#	62150
#	154647
#	291352
#	299422
#	304932
#	310410
#	319460
#
# Disc length: 4367 seconds
#
# Revision: 2
# Processed by: cddbd v1.5.2PL0 Copyright (c) Steve Scherf et al.
# Submitted via: audiograbber 1.83.01
#
DISCID=7e110d08
DTITLE=Cecil Taylor - In East-Berlin - CD1
DYEAR=1988
DGENRE=Jazz
TTITLE0=Reinforced Concrete Part 1
TTITLE1=Reinforced Concrete Part 2
TTITLE2=Reinforced Concrete Part 3
TTITLE3=Stone Part 1
TTITLE4=Stone Part 2
TTITLE5=Stone Part 3
TTITLE6=The Old Canal
TTITLE7=Stone Part 4
EXTD=CD 1
EXTT0=
EXTT1=
EXTT2=
EXTT3=
EXTT4=
EXTT5=
EXTT6=
EXTT7=
PLAYORDER=
